<svg version="1.1" id="Layer_1" xmlns="http://www.w3.org/2000/svg" xmlns:xlink="http://www.w3.org/1999/xlink" x="0px" y="0px"
	 width="100%" viewBox="0 0 496 496" enable-background="new 0 0 496 496" xml:space="preserve">
<path fill="#000000" opacity="1.000000" stroke="none" 
	d="
M251.666672,1.000000 
	C258.236969,18.900085 264.367126,36.838238 270.730225,54.693375 
	C293.065887,117.368347 315.418915,180.037369 337.970551,242.634735 
	C340.078857,248.486877 340.049805,253.578751 337.952942,259.418762 
	C309.615265,338.341858 281.474396,417.335632 253.142426,496.655945 
	C251.933334,497.000000 250.866653,497.000000 249.399994,497.000000 
	C226.292953,433.389648 203.585266,369.779510 180.879333,306.168762 
	C174.896225,289.407013 168.975342,272.622681 162.892593,255.897202 
	C161.620056,252.398193 161.741348,249.234619 162.987030,245.757721 
	C182.457108,191.413101 201.848206,137.040207 221.250031,82.671135 
	C230.474960,56.820465 239.687149,30.965246 248.890015,5.106718 
	C249.278168,4.016109 249.513214,2.871015 249.909790,1.375651 
	C250.444443,1.000000 250.888901,1.000000 251.666672,1.000000 
M202.352585,250.564743 
	C202.663223,253.200378 202.984207,255.834839 203.282913,258.471832 
	C206.331512,285.385071 235.792877,304.863983 262.202209,298.227081 
	C287.363831,291.903748 302.748627,266.611084 298.880615,242.966705 
	C294.500885,216.194000 266.147614,196.961838 239.778748,204.006119 
	C217.475479,209.964279 205.685089,224.356491 202.352585,250.564743 
M244.225021,462.421631 
	C246.444473,467.865784 247.954803,473.613464 251.286423,479.587036 
	C256.234131,466.433289 260.881775,454.077362 265.529388,441.721436 
	C264.978973,441.330414 264.428589,440.939392 263.878174,440.548370 
	C260.562622,444.253784 257.219330,447.934845 253.941925,451.673676 
	C251.974777,453.917755 250.233444,453.883331 248.130264,451.727570 
	C244.612991,448.122498 240.902985,444.705505 237.274094,441.209320 
	C237.010040,441.399841 236.745972,441.590363 236.481903,441.780884 
	C238.969666,448.420258 241.457428,455.059631 244.225021,462.421631 
z"/>
</svg>