<svg xmlns="http://www.w3.org/2000/svg" version="1.1" xmlns:xlink="http://www.w3.org/1999/xlink" xmlns:svgjs="http://svgjs.dev/svgjs" viewBox="0 0 800 800" opacity="0.1" width="800" height="800"><g stroke-width="0.5" stroke="hsla(0, 0%, 100%, 1.00)" fill="none"><rect width="57.142857142857146" height="44.44444444444444" x="0" y="0"></rect><rect width="57.142857142857146" height="44.44444444444444" x="57.142857142857146" y="0"></rect><rect width="57.142857142857146" height="44.44444444444444" x="114.28571428571429" y="0"></rect><rect width="57.142857142857146" height="44.44444444444444" x="171.42857142857144" y="0"></rect><rect width="57.142857142857146" height="44.44444444444444" x="228.57142857142858" y="0"></rect><rect width="57.142857142857146" height="44.44444444444444" x="285.7142857142857" y="0"></rect><rect width="57.142857142857146" height="44.44444444444444" x="342.8571428571429" y="0"></rect><rect width="57.142857142857146" height="44.44444444444444" x="400.00000000000006" y="0"></rect><rect width="57.142857142857146" height="44.44444444444444" x="457.1428571428572" y="0"></rect><rect width="57.142857142857146" height="44.44444444444444" x="514.2857142857143" y="0"></rect><rect width="57.142857142857146" height="44.44444444444444" x="571.4285714285714" y="0"></rect><rect width="57.142857142857146" height="44.44444444444444" x="628.5714285714286" y="0"></rect><rect width="57.142857142857146" height="44.44444444444444" x="685.7142857142857" y="0"></rect><rect width="57.142857142857146" height="44.44444444444444" x="742.8571428571428" y="0"></rect><rect width="57.142857142857146" height="44.44444444444444" x="799.9999999999999" y="0"></rect><rect width="57.142857142857146" height="44.44444444444444" x="0" y="44.44444444444444"></rect><rect width="57.142857142857146" height="44.44444444444444" x="57.142857142857146" y="44.44444444444444"></rect><rect width="57.142857142857146" height="44.44444444444444" x="114.28571428571429" y="44.44444444444444"></rect><rect width="57.142857142857146" height="44.44444444444444" x="171.42857142857144" y="44.44444444444444"></rect><rect width="57.142857142857146" height="44.44444444444444" x="228.57142857142858" y="44.44444444444444"></rect><rect width="57.142857142857146" height="44.44444444444444" x="285.7142857142857" y="44.44444444444444"></rect><rect width="57.142857142857146" height="44.44444444444444" x="342.8571428571429" y="44.44444444444444"></rect><rect width="57.142857142857146" height="44.44444444444444" x="400.00000000000006" y="44.44444444444444"></rect><rect width="57.142857142857146" height="44.44444444444444" x="457.1428571428572" y="44.44444444444444"></rect><rect width="57.142857142857146" height="44.44444444444444" x="514.2857142857143" y="44.44444444444444"></rect><rect width="57.142857142857146" height="44.44444444444444" x="571.4285714285714" y="44.44444444444444"></rect><rect width="57.142857142857146" height="44.44444444444444" x="628.5714285714286" y="44.44444444444444"></rect><rect width="57.142857142857146" height="44.44444444444444" x="685.7142857142857" y="44.44444444444444"></rect><rect width="57.142857142857146" height="44.44444444444444" x="742.8571428571428" y="44.44444444444444"></rect><rect width="57.142857142857146" height="44.44444444444444" x="799.9999999999999" y="44.44444444444444"></rect><rect width="57.142857142857146" height="44.44444444444444" x="0" y="88.88888888888889"></rect><rect width="57.142857142857146" height="44.44444444444444" x="57.142857142857146" y="88.88888888888889"></rect><rect width="57.142857142857146" height="44.44444444444444" x="114.28571428571429" y="88.88888888888889"></rect><rect width="57.142857142857146" height="44.44444444444444" x="171.42857142857144" y="88.88888888888889"></rect><rect width="57.142857142857146" height="44.44444444444444" x="228.57142857142858" y="88.88888888888889"></rect><rect width="57.142857142857146" height="44.44444444444444" x="285.7142857142857" y="88.88888888888889"></rect><rect width="57.142857142857146" height="44.44444444444444" x="342.8571428571429" y="88.88888888888889"></rect><rect width="57.142857142857146" height="44.44444444444444" x="400.00000000000006" y="88.88888888888889"></rect><rect width="57.142857142857146" height="44.44444444444444" x="457.1428571428572" y="88.88888888888889"></rect><rect width="57.142857142857146" height="44.44444444444444" x="514.2857142857143" y="88.88888888888889"></rect><rect width="57.142857142857146" height="44.44444444444444" x="571.4285714285714" y="88.88888888888889"></rect><rect width="57.142857142857146" height="44.44444444444444" x="628.5714285714286" y="88.88888888888889"></rect><rect width="57.142857142857146" height="44.44444444444444" x="685.7142857142857" y="88.88888888888889"></rect><rect width="57.142857142857146" height="44.44444444444444" x="742.8571428571428" y="88.88888888888889"></rect><rect width="57.142857142857146" height="44.44444444444444" x="799.9999999999999" y="88.88888888888889"></rect><rect width="57.142857142857146" height="44.44444444444444" x="0" y="133.33333333333331"></rect><rect width="57.142857142857146" height="44.44444444444444" x="57.142857142857146" y="133.33333333333331"></rect><rect width="57.142857142857146" height="44.44444444444444" x="114.28571428571429" y="133.33333333333331"></rect><rect width="57.142857142857146" height="44.44444444444444" x="171.42857142857144" y="133.33333333333331"></rect><rect width="57.142857142857146" height="44.44444444444444" x="228.57142857142858" y="133.33333333333331"></rect><rect width="57.142857142857146" height="44.44444444444444" x="285.7142857142857" y="133.33333333333331"></rect><rect width="57.142857142857146" height="44.44444444444444" x="342.8571428571429" y="133.33333333333331"></rect><rect width="57.142857142857146" height="44.44444444444444" x="400.00000000000006" y="133.33333333333331"></rect><rect width="57.142857142857146" height="44.44444444444444" x="457.1428571428572" y="133.33333333333331"></rect><rect width="57.142857142857146" height="44.44444444444444" x="514.2857142857143" y="133.33333333333331"></rect><rect width="57.142857142857146" height="44.44444444444444" x="571.4285714285714" y="133.33333333333331"></rect><rect width="57.142857142857146" height="44.44444444444444" x="628.5714285714286" y="133.33333333333331"></rect><rect width="57.142857142857146" height="44.44444444444444" x="685.7142857142857" y="133.33333333333331"></rect><rect width="57.142857142857146" height="44.44444444444444" x="742.8571428571428" y="133.33333333333331"></rect><rect width="57.142857142857146" height="44.44444444444444" x="799.9999999999999" y="133.33333333333331"></rect><rect width="57.142857142857146" height="44.44444444444444" x="0" y="177.77777777777777"></rect><rect width="57.142857142857146" height="44.44444444444444" x="57.142857142857146" y="177.77777777777777"></rect><rect width="57.142857142857146" height="44.44444444444444" x="114.28571428571429" y="177.77777777777777"></rect><rect width="57.142857142857146" height="44.44444444444444" x="171.42857142857144" y="177.77777777777777"></rect><rect width="57.142857142857146" height="44.44444444444444" x="228.57142857142858" y="177.77777777777777"></rect><rect width="57.142857142857146" height="44.44444444444444" x="285.7142857142857" y="177.77777777777777"></rect><rect width="57.142857142857146" height="44.44444444444444" x="342.8571428571429" y="177.77777777777777"></rect><rect width="57.142857142857146" height="44.44444444444444" x="400.00000000000006" y="177.77777777777777"></rect><rect width="57.142857142857146" height="44.44444444444444" x="457.1428571428572" y="177.77777777777777"></rect><rect width="57.142857142857146" height="44.44444444444444" x="514.2857142857143" y="177.77777777777777"></rect><rect width="57.142857142857146" height="44.44444444444444" x="571.4285714285714" y="177.77777777777777"></rect><rect width="57.142857142857146" height="44.44444444444444" x="628.5714285714286" y="177.77777777777777"></rect><rect width="57.142857142857146" height="44.44444444444444" x="685.7142857142857" y="177.77777777777777"></rect><rect width="57.142857142857146" height="44.44444444444444" x="742.8571428571428" y="177.77777777777777"></rect><rect width="57.142857142857146" height="44.44444444444444" x="799.9999999999999" y="177.77777777777777"></rect><rect width="57.142857142857146" height="44.44444444444444" x="0" y="222.22222222222223"></rect><rect width="57.142857142857146" height="44.44444444444444" x="57.142857142857146" y="222.22222222222223"></rect><rect width="57.142857142857146" height="44.44444444444444" x="114.28571428571429" y="222.22222222222223"></rect><rect width="57.142857142857146" height="44.44444444444444" x="171.42857142857144" y="222.22222222222223"></rect><rect width="57.142857142857146" height="44.44444444444444" x="228.57142857142858" y="222.22222222222223"></rect><rect width="57.142857142857146" height="44.44444444444444" x="285.7142857142857" y="222.22222222222223"></rect><rect width="57.142857142857146" height="44.44444444444444" x="342.8571428571429" y="222.22222222222223"></rect><rect width="57.142857142857146" height="44.44444444444444" x="400.00000000000006" y="222.22222222222223"></rect><rect width="57.142857142857146" height="44.44444444444444" x="457.1428571428572" y="222.22222222222223"></rect><rect width="57.142857142857146" height="44.44444444444444" x="514.2857142857143" y="222.22222222222223"></rect><rect width="57.142857142857146" height="44.44444444444444" x="571.4285714285714" y="222.22222222222223"></rect><rect width="57.142857142857146" height="44.44444444444444" x="628.5714285714286" y="222.22222222222223"></rect><rect width="57.142857142857146" height="44.44444444444444" x="685.7142857142857" y="222.22222222222223"></rect><rect width="57.142857142857146" height="44.44444444444444" x="742.8571428571428" y="222.22222222222223"></rect><rect width="57.142857142857146" height="44.44444444444444" x="799.9999999999999" y="222.22222222222223"></rect><rect width="57.142857142857146" height="44.44444444444444" x="0" y="266.6666666666667"></rect><rect width="57.142857142857146" height="44.44444444444444" x="57.142857142857146" y="266.6666666666667"></rect><rect width="57.142857142857146" height="44.44444444444444" x="114.28571428571429" y="266.6666666666667"></rect><rect width="57.142857142857146" height="44.44444444444444" x="171.42857142857144" y="266.6666666666667"></rect><rect width="57.142857142857146" height="44.44444444444444" x="228.57142857142858" y="266.6666666666667"></rect><rect width="57.142857142857146" height="44.44444444444444" x="285.7142857142857" y="266.6666666666667"></rect><rect width="57.142857142857146" height="44.44444444444444" x="342.8571428571429" y="266.6666666666667"></rect><rect width="57.142857142857146" height="44.44444444444444" x="400.00000000000006" y="266.6666666666667"></rect><rect width="57.142857142857146" height="44.44444444444444" x="457.1428571428572" y="266.6666666666667"></rect><rect width="57.142857142857146" height="44.44444444444444" x="514.2857142857143" y="266.6666666666667"></rect><rect width="57.142857142857146" height="44.44444444444444" x="571.4285714285714" y="266.6666666666667"></rect><rect width="57.142857142857146" height="44.44444444444444" x="628.5714285714286" y="266.6666666666667"></rect><rect width="57.142857142857146" height="44.44444444444444" x="685.7142857142857" y="266.6666666666667"></rect><rect width="57.142857142857146" height="44.44444444444444" x="742.8571428571428" y="266.6666666666667"></rect><rect width="57.142857142857146" height="44.44444444444444" x="799.9999999999999" y="266.6666666666667"></rect><rect width="57.142857142857146" height="44.44444444444444" x="0" y="311.11111111111114"></rect><rect width="57.142857142857146" height="44.44444444444444" x="57.142857142857146" y="311.11111111111114"></rect><rect width="57.142857142857146" height="44.44444444444444" x="114.28571428571429" y="311.11111111111114"></rect><rect width="57.142857142857146" height="44.44444444444444" x="171.42857142857144" y="311.11111111111114"></rect><rect width="57.142857142857146" height="44.44444444444444" x="228.57142857142858" y="311.11111111111114"></rect><rect width="57.142857142857146" height="44.44444444444444" x="285.7142857142857" y="311.11111111111114"></rect><rect width="57.142857142857146" height="44.44444444444444" x="342.8571428571429" y="311.11111111111114"></rect><rect width="57.142857142857146" height="44.44444444444444" x="400.00000000000006" y="311.11111111111114"></rect><rect width="57.142857142857146" height="44.44444444444444" x="457.1428571428572" y="311.11111111111114"></rect><rect width="57.142857142857146" height="44.44444444444444" x="514.2857142857143" y="311.11111111111114"></rect><rect width="57.142857142857146" height="44.44444444444444" x="571.4285714285714" y="311.11111111111114"></rect><rect width="57.142857142857146" height="44.44444444444444" x="628.5714285714286" y="311.11111111111114"></rect><rect width="57.142857142857146" height="44.44444444444444" x="685.7142857142857" y="311.11111111111114"></rect><rect width="57.142857142857146" height="44.44444444444444" x="742.8571428571428" y="311.11111111111114"></rect><rect width="57.142857142857146" height="44.44444444444444" x="799.9999999999999" y="311.11111111111114"></rect><rect width="57.142857142857146" height="44.44444444444444" x="0" y="355.5555555555556"></rect><rect width="57.142857142857146" height="44.44444444444444" x="57.142857142857146" y="355.5555555555556"></rect><rect width="57.142857142857146" height="44.44444444444444" x="114.28571428571429" y="355.5555555555556"></rect><rect width="57.142857142857146" height="44.44444444444444" x="171.42857142857144" y="355.5555555555556"></rect><rect width="57.142857142857146" height="44.44444444444444" x="228.57142857142858" y="355.5555555555556"></rect><rect width="57.142857142857146" height="44.44444444444444" x="285.7142857142857" y="355.5555555555556"></rect><rect width="57.142857142857146" height="44.44444444444444" x="342.8571428571429" y="355.5555555555556"></rect><rect width="57.142857142857146" height="44.44444444444444" x="400.00000000000006" y="355.5555555555556"></rect><rect width="57.142857142857146" height="44.44444444444444" x="457.1428571428572" y="355.5555555555556"></rect><rect width="57.142857142857146" height="44.44444444444444" x="514.2857142857143" y="355.5555555555556"></rect><rect width="57.142857142857146" height="44.44444444444444" x="571.4285714285714" y="355.5555555555556"></rect><rect width="57.142857142857146" height="44.44444444444444" x="628.5714285714286" y="355.5555555555556"></rect><rect width="57.142857142857146" height="44.44444444444444" x="685.7142857142857" y="355.5555555555556"></rect><rect width="57.142857142857146" height="44.44444444444444" x="742.8571428571428" y="355.5555555555556"></rect><rect width="57.142857142857146" height="44.44444444444444" x="799.9999999999999" y="355.5555555555556"></rect><rect width="57.142857142857146" height="44.44444444444444" x="0" y="400.00000000000006"></rect><rect width="57.142857142857146" height="44.44444444444444" x="57.142857142857146" y="400.00000000000006"></rect><rect width="57.142857142857146" height="44.44444444444444" x="114.28571428571429" y="400.00000000000006"></rect><rect width="57.142857142857146" height="44.44444444444444" x="171.42857142857144" y="400.00000000000006"></rect><rect width="57.142857142857146" height="44.44444444444444" x="228.57142857142858" y="400.00000000000006"></rect><rect width="57.142857142857146" height="44.44444444444444" x="285.7142857142857" y="400.00000000000006"></rect><rect width="57.142857142857146" height="44.44444444444444" x="342.8571428571429" y="400.00000000000006"></rect><rect width="57.142857142857146" height="44.44444444444444" x="400.00000000000006" y="400.00000000000006"></rect><rect width="57.142857142857146" height="44.44444444444444" x="457.1428571428572" y="400.00000000000006"></rect><rect width="57.142857142857146" height="44.44444444444444" x="514.2857142857143" y="400.00000000000006"></rect><rect width="57.142857142857146" height="44.44444444444444" x="571.4285714285714" y="400.00000000000006"></rect><rect width="57.142857142857146" height="44.44444444444444" x="628.5714285714286" y="400.00000000000006"></rect><rect width="57.142857142857146" height="44.44444444444444" x="685.7142857142857" y="400.00000000000006"></rect><rect width="57.142857142857146" height="44.44444444444444" x="742.8571428571428" y="400.00000000000006"></rect><rect width="57.142857142857146" height="44.44444444444444" x="799.9999999999999" y="400.00000000000006"></rect><rect width="57.142857142857146" height="44.44444444444444" x="0" y="444.4444444444445"></rect><rect width="57.142857142857146" height="44.44444444444444" x="57.142857142857146" y="444.4444444444445"></rect><rect width="57.142857142857146" height="44.44444444444444" x="114.28571428571429" y="444.4444444444445"></rect><rect width="57.142857142857146" height="44.44444444444444" x="171.42857142857144" y="444.4444444444445"></rect><rect width="57.142857142857146" height="44.44444444444444" x="228.57142857142858" y="444.4444444444445"></rect><rect width="57.142857142857146" height="44.44444444444444" x="285.7142857142857" y="444.4444444444445"></rect><rect width="57.142857142857146" height="44.44444444444444" x="342.8571428571429" y="444.4444444444445"></rect><rect width="57.142857142857146" height="44.44444444444444" x="400.00000000000006" y="444.4444444444445"></rect><rect width="57.142857142857146" height="44.44444444444444" x="457.1428571428572" y="444.4444444444445"></rect><rect width="57.142857142857146" height="44.44444444444444" x="514.2857142857143" y="444.4444444444445"></rect><rect width="57.142857142857146" height="44.44444444444444" x="571.4285714285714" y="444.4444444444445"></rect><rect width="57.142857142857146" height="44.44444444444444" x="628.5714285714286" y="444.4444444444445"></rect><rect width="57.142857142857146" height="44.44444444444444" x="685.7142857142857" y="444.4444444444445"></rect><rect width="57.142857142857146" height="44.44444444444444" x="742.8571428571428" y="444.4444444444445"></rect><rect width="57.142857142857146" height="44.44444444444444" x="799.9999999999999" y="444.4444444444445"></rect><rect width="57.142857142857146" height="44.44444444444444" x="0" y="488.88888888888897"></rect><rect width="57.142857142857146" height="44.44444444444444" x="57.142857142857146" y="488.88888888888897"></rect><rect width="57.142857142857146" height="44.44444444444444" x="114.28571428571429" y="488.88888888888897"></rect><rect width="57.142857142857146" height="44.44444444444444" x="171.42857142857144" y="488.88888888888897"></rect><rect width="57.142857142857146" height="44.44444444444444" x="228.57142857142858" y="488.88888888888897"></rect><rect width="57.142857142857146" height="44.44444444444444" x="285.7142857142857" y="488.88888888888897"></rect><rect width="57.142857142857146" height="44.44444444444444" x="342.8571428571429" y="488.88888888888897"></rect><rect width="57.142857142857146" height="44.44444444444444" x="400.00000000000006" y="488.88888888888897"></rect><rect width="57.142857142857146" height="44.44444444444444" x="457.1428571428572" y="488.88888888888897"></rect><rect width="57.142857142857146" height="44.44444444444444" x="514.2857142857143" y="488.88888888888897"></rect><rect width="57.142857142857146" height="44.44444444444444" x="571.4285714285714" y="488.88888888888897"></rect><rect width="57.142857142857146" height="44.44444444444444" x="628.5714285714286" y="488.88888888888897"></rect><rect width="57.142857142857146" height="44.44444444444444" x="685.7142857142857" y="488.88888888888897"></rect><rect width="57.142857142857146" height="44.44444444444444" x="742.8571428571428" y="488.88888888888897"></rect><rect width="57.142857142857146" height="44.44444444444444" x="799.9999999999999" y="488.88888888888897"></rect><rect width="57.142857142857146" height="44.44444444444444" x="0" y="533.3333333333334"></rect><rect width="57.142857142857146" height="44.44444444444444" x="57.142857142857146" y="533.3333333333334"></rect><rect width="57.142857142857146" height="44.44444444444444" x="114.28571428571429" y="533.3333333333334"></rect><rect width="57.142857142857146" height="44.44444444444444" x="171.42857142857144" y="533.3333333333334"></rect><rect width="57.142857142857146" height="44.44444444444444" x="228.57142857142858" y="533.3333333333334"></rect><rect width="57.142857142857146" height="44.44444444444444" x="285.7142857142857" y="533.3333333333334"></rect><rect width="57.142857142857146" height="44.44444444444444" x="342.8571428571429" y="533.3333333333334"></rect><rect width="57.142857142857146" height="44.44444444444444" x="400.00000000000006" y="533.3333333333334"></rect><rect width="57.142857142857146" height="44.44444444444444" x="457.1428571428572" y="533.3333333333334"></rect><rect width="57.142857142857146" height="44.44444444444444" x="514.2857142857143" y="533.3333333333334"></rect><rect width="57.142857142857146" height="44.44444444444444" x="571.4285714285714" y="533.3333333333334"></rect><rect width="57.142857142857146" height="44.44444444444444" x="628.5714285714286" y="533.3333333333334"></rect><rect width="57.142857142857146" height="44.44444444444444" x="685.7142857142857" y="533.3333333333334"></rect><rect width="57.142857142857146" height="44.44444444444444" x="742.8571428571428" y="533.3333333333334"></rect><rect width="57.142857142857146" height="44.44444444444444" x="799.9999999999999" y="533.3333333333334"></rect><rect width="57.142857142857146" height="44.44444444444444" x="0" y="577.7777777777778"></rect><rect width="57.142857142857146" height="44.44444444444444" x="57.142857142857146" y="577.7777777777778"></rect><rect width="57.142857142857146" height="44.44444444444444" x="114.28571428571429" y="577.7777777777778"></rect><rect width="57.142857142857146" height="44.44444444444444" x="171.42857142857144" y="577.7777777777778"></rect><rect width="57.142857142857146" height="44.44444444444444" x="228.57142857142858" y="577.7777777777778"></rect><rect width="57.142857142857146" height="44.44444444444444" x="285.7142857142857" y="577.7777777777778"></rect><rect width="57.142857142857146" height="44.44444444444444" x="342.8571428571429" y="577.7777777777778"></rect><rect width="57.142857142857146" height="44.44444444444444" x="400.00000000000006" y="577.7777777777778"></rect><rect width="57.142857142857146" height="44.44444444444444" x="457.1428571428572" y="577.7777777777778"></rect><rect width="57.142857142857146" height="44.44444444444444" x="514.2857142857143" y="577.7777777777778"></rect><rect width="57.142857142857146" height="44.44444444444444" x="571.4285714285714" y="577.7777777777778"></rect><rect width="57.142857142857146" height="44.44444444444444" x="628.5714285714286" y="577.7777777777778"></rect><rect width="57.142857142857146" height="44.44444444444444" x="685.7142857142857" y="577.7777777777778"></rect><rect width="57.142857142857146" height="44.44444444444444" x="742.8571428571428" y="577.7777777777778"></rect><rect width="57.142857142857146" height="44.44444444444444" x="799.9999999999999" y="577.7777777777778"></rect><rect width="57.142857142857146" height="44.44444444444444" x="0" y="622.2222222222223"></rect><rect width="57.142857142857146" height="44.44444444444444" x="57.142857142857146" y="622.2222222222223"></rect><rect width="57.142857142857146" height="44.44444444444444" x="114.28571428571429" y="622.2222222222223"></rect><rect width="57.142857142857146" height="44.44444444444444" x="171.42857142857144" y="622.2222222222223"></rect><rect width="57.142857142857146" height="44.44444444444444" x="228.57142857142858" y="622.2222222222223"></rect><rect width="57.142857142857146" height="44.44444444444444" x="285.7142857142857" y="622.2222222222223"></rect><rect width="57.142857142857146" height="44.44444444444444" x="342.8571428571429" y="622.2222222222223"></rect><rect width="57.142857142857146" height="44.44444444444444" x="400.00000000000006" y="622.2222222222223"></rect><rect width="57.142857142857146" height="44.44444444444444" x="457.1428571428572" y="622.2222222222223"></rect><rect width="57.142857142857146" height="44.44444444444444" x="514.2857142857143" y="622.2222222222223"></rect><rect width="57.142857142857146" height="44.44444444444444" x="571.4285714285714" y="622.2222222222223"></rect><rect width="57.142857142857146" height="44.44444444444444" x="628.5714285714286" y="622.2222222222223"></rect><rect width="57.142857142857146" height="44.44444444444444" x="685.7142857142857" y="622.2222222222223"></rect><rect width="57.142857142857146" height="44.44444444444444" x="742.8571428571428" y="622.2222222222223"></rect><rect width="57.142857142857146" height="44.44444444444444" x="799.9999999999999" y="622.2222222222223"></rect><rect width="57.142857142857146" height="44.44444444444444" x="0" y="666.6666666666667"></rect><rect width="57.142857142857146" height="44.44444444444444" x="57.142857142857146" y="666.6666666666667"></rect><rect width="57.142857142857146" height="44.44444444444444" x="114.28571428571429" y="666.6666666666667"></rect><rect width="57.142857142857146" height="44.44444444444444" x="171.42857142857144" y="666.6666666666667"></rect><rect width="57.142857142857146" height="44.44444444444444" x="228.57142857142858" y="666.6666666666667"></rect><rect width="57.142857142857146" height="44.44444444444444" x="285.7142857142857" y="666.6666666666667"></rect><rect width="57.142857142857146" height="44.44444444444444" x="342.8571428571429" y="666.6666666666667"></rect><rect width="57.142857142857146" height="44.44444444444444" x="400.00000000000006" y="666.6666666666667"></rect><rect width="57.142857142857146" height="44.44444444444444" x="457.1428571428572" y="666.6666666666667"></rect><rect width="57.142857142857146" height="44.44444444444444" x="514.2857142857143" y="666.6666666666667"></rect><rect width="57.142857142857146" height="44.44444444444444" x="571.4285714285714" y="666.6666666666667"></rect><rect width="57.142857142857146" height="44.44444444444444" x="628.5714285714286" y="666.6666666666667"></rect><rect width="57.142857142857146" height="44.44444444444444" x="685.7142857142857" y="666.6666666666667"></rect><rect width="57.142857142857146" height="44.44444444444444" x="742.8571428571428" y="666.6666666666667"></rect><rect width="57.142857142857146" height="44.44444444444444" x="799.9999999999999" y="666.6666666666667"></rect><rect width="57.142857142857146" height="44.44444444444444" x="0" y="711.1111111111112"></rect><rect width="57.142857142857146" height="44.44444444444444" x="57.142857142857146" y="711.1111111111112"></rect><rect width="57.142857142857146" height="44.44444444444444" x="114.28571428571429" y="711.1111111111112"></rect><rect width="57.142857142857146" height="44.44444444444444" x="171.42857142857144" y="711.1111111111112"></rect><rect width="57.142857142857146" height="44.44444444444444" x="228.57142857142858" y="711.1111111111112"></rect><rect width="57.142857142857146" height="44.44444444444444" x="285.7142857142857" y="711.1111111111112"></rect><rect width="57.142857142857146" height="44.44444444444444" x="342.8571428571429" y="711.1111111111112"></rect><rect width="57.142857142857146" height="44.44444444444444" x="400.00000000000006" y="711.1111111111112"></rect><rect width="57.142857142857146" height="44.44444444444444" x="457.1428571428572" y="711.1111111111112"></rect><rect width="57.142857142857146" height="44.44444444444444" x="514.2857142857143" y="711.1111111111112"></rect><rect width="57.142857142857146" height="44.44444444444444" x="571.4285714285714" y="711.1111111111112"></rect><rect width="57.142857142857146" height="44.44444444444444" x="628.5714285714286" y="711.1111111111112"></rect><rect width="57.142857142857146" height="44.44444444444444" x="685.7142857142857" y="711.1111111111112"></rect><rect width="57.142857142857146" height="44.44444444444444" x="742.8571428571428" y="711.1111111111112"></rect><rect width="57.142857142857146" height="44.44444444444444" x="799.9999999999999" y="711.1111111111112"></rect><rect width="57.142857142857146" height="44.44444444444444" x="0" y="755.5555555555557"></rect><rect width="57.142857142857146" height="44.44444444444444" x="57.142857142857146" y="755.5555555555557"></rect><rect width="57.142857142857146" height="44.44444444444444" x="114.28571428571429" y="755.5555555555557"></rect><rect width="57.142857142857146" height="44.44444444444444" x="171.42857142857144" y="755.5555555555557"></rect><rect width="57.142857142857146" height="44.44444444444444" x="228.57142857142858" y="755.5555555555557"></rect><rect width="57.142857142857146" height="44.44444444444444" x="285.7142857142857" y="755.5555555555557"></rect><rect width="57.142857142857146" height="44.44444444444444" x="342.8571428571429" y="755.5555555555557"></rect><rect width="57.142857142857146" height="44.44444444444444" x="400.00000000000006" y="755.5555555555557"></rect><rect width="57.142857142857146" height="44.44444444444444" x="457.1428571428572" y="755.5555555555557"></rect><rect width="57.142857142857146" height="44.44444444444444" x="514.2857142857143" y="755.5555555555557"></rect><rect width="57.142857142857146" height="44.44444444444444" x="571.4285714285714" y="755.5555555555557"></rect><rect width="57.142857142857146" height="44.44444444444444" x="628.5714285714286" y="755.5555555555557"></rect><rect width="57.142857142857146" height="44.44444444444444" x="685.7142857142857" y="755.5555555555557"></rect><rect width="57.142857142857146" height="44.44444444444444" x="742.8571428571428" y="755.5555555555557"></rect><rect width="57.142857142857146" height="44.44444444444444" x="799.9999999999999" y="755.5555555555557"></rect><rect width="57.142857142857146" height="44.44444444444444" x="0" y="800.0000000000001"></rect><rect width="57.142857142857146" height="44.44444444444444" x="57.142857142857146" y="800.0000000000001"></rect><rect width="57.142857142857146" height="44.44444444444444" x="114.28571428571429" y="800.0000000000001"></rect><rect width="57.142857142857146" height="44.44444444444444" x="171.42857142857144" y="800.0000000000001"></rect><rect width="57.142857142857146" height="44.44444444444444" x="228.57142857142858" y="800.0000000000001"></rect><rect width="57.142857142857146" height="44.44444444444444" x="285.7142857142857" y="800.0000000000001"></rect><rect width="57.142857142857146" height="44.44444444444444" x="342.8571428571429" y="800.0000000000001"></rect><rect width="57.142857142857146" height="44.44444444444444" x="400.00000000000006" y="800.0000000000001"></rect><rect width="57.142857142857146" height="44.44444444444444" x="457.1428571428572" y="800.0000000000001"></rect><rect width="57.142857142857146" height="44.44444444444444" x="514.2857142857143" y="800.0000000000001"></rect><rect width="57.142857142857146" height="44.44444444444444" x="571.4285714285714" y="800.0000000000001"></rect><rect width="57.142857142857146" height="44.44444444444444" x="628.5714285714286" y="800.0000000000001"></rect><rect width="57.142857142857146" height="44.44444444444444" x="685.7142857142857" y="800.0000000000001"></rect><rect width="57.142857142857146" height="44.44444444444444" x="742.8571428571428" y="800.0000000000001"></rect><rect width="57.142857142857146" height="44.44444444444444" x="799.9999999999999" y="800.0000000000001"></rect></g></svg>