<svg version="1.1" id="Layer_1" xmlns="http://www.w3.org/2000/svg" xmlns:xlink="http://www.w3.org/1999/xlink" x="0px" y="0px"
	 width="100%" viewBox="0 0 496 496" enable-background="new 0 0 496 496" xml:space="preserve">
<path fill="#000000" opacity="1.000000" stroke="none" 
	d="
M251.666672,1.000000 
	C258.236908,18.899984 264.367401,36.837906 270.730011,54.693089 
	C293.064148,117.368660 315.414307,180.038788 337.966949,242.635834 
	C340.077057,248.492584 340.038544,253.589569 337.945496,259.420135 
	C309.613434,338.343872 281.470764,417.335602 253.140625,496.655243 
	C251.933334,497.000000 250.866653,497.000000 249.399994,497.000000 
	C226.295441,433.387177 203.590332,369.774597 180.886719,306.161407 
	C174.904327,289.399384 168.965836,272.621490 162.913040,255.884933 
	C161.724854,252.599487 161.629868,249.582474 162.833115,246.224258 
	C182.360107,191.724991 201.798782,137.194061 221.251694,82.668251 
	C230.474243,56.817768 239.687698,30.964048 248.890152,5.106417 
	C249.278244,4.015908 249.513245,2.870909 249.909790,1.375649 
	C250.444443,1.000000 250.888901,1.000000 251.666672,1.000000 
M271.317169,207.169678 
	C262.598846,203.568909 253.803787,201.800415 244.150452,203.116898 
	C219.223572,206.516357 199.396729,230.222412 203.044479,257.541351 
	C206.565918,283.914398 232.395538,302.958649 257.720490,298.872620 
	C281.994202,294.956177 300.481384,274.375854 299.525452,250.030212 
	C298.767029,230.714355 289.529816,216.250793 271.317169,207.169678 
M223.577789,391.029724 
	C232.508163,415.055969 241.438553,439.082214 250.368927,463.108429 
	C250.821869,463.026581 251.274796,462.944702 251.727737,462.862823 
	C264.662018,428.000824 277.596313,393.138824 290.691589,357.842834 
	C263.973816,357.842834 238.144012,357.842834 211.403625,357.842834 
	C215.554886,369.129761 219.445801,379.708801 223.577789,391.029724 
z"/>
</svg>